<svg xmlns="http://www.w3.org/2000/svg" xmlns:svg="http://www.w3.org/2000/svg" id="svg8" width="1024" height="1024" version="1.1" viewBox="0 0 270.933 270.933"><title id="title2061">Diskai Logo</title><defs id="defs2"><filter style="color-interpolation-filters:sRGB" id="filter2017" width="1" height="1" x="0" y="0"><feGaussianBlur id="feGaussianBlur2019" stdDeviation=".008"/></filter></defs><metadata id="metadata5"/><g id="layer1"><rect style="fill:#252525;fill-opacity:1;stroke-width:.00766365" id="rect843" width="270.933" height="270.933" x="0" y="0" ry="0"/></g><g id="layer2" style="display:inline"><path style="fill:#79b814;fill-opacity:1;stroke:none;stroke-width:.264583px;stroke-linecap:butt;stroke-linejoin:miter;stroke-opacity:1" id="path2059" d="M 76.729163,130.17499 158.74999,67.204163 h 27.78125 l -88.635411,68.262497 88.635411,68.2625 h -27.78125 l -82.020827,-60.325 z"/></g><g id="layer3" style="display:inline"><g id="text847" aria-label="D" transform="matrix(1.006994,0,0,0.99260441,16.433416,0.02804661)" style="font-style:normal;font-weight:400;font-size:256.584px;line-height:1.25;font-family:sans-serif;fill:#000;fill-opacity:1;stroke:none;stroke-width:.256584;filter:url(#filter2017)"><path style="font-style:normal;font-variant:normal;font-weight:400;font-stretch:normal;font-size:256.584px;font-family:sans-serif;-inkscape-font-specification:sans-serif;opacity:1;fill:#f6f6ef;fill-opacity:1;stroke-width:.256584" id="path839" d="m 197.01087,136.63566 q 0,25.43289 -11.15038,46.10494 -11.0251,20.67205 -29.44202,32.073 -12.77908,7.89297 -28.56501,11.40095 -15.66065,3.50798 -41.344106,3.50798 H 39.402132 V 43.172926 h 46.606081 q 27.312167,0 43.348667,4.009125 16.16179,3.88384 27.31217,10.774524 19.04334,11.902091 29.69258,31.697146 10.64924,19.795059 10.64924,46.981939 z m -25.93403,-0.37586 q 0,-21.9249 -7.6424,-36.959121 -7.64239,-15.03422 -22.8019,-23.678896 -11.02509,-6.264258 -23.42832,-8.644676 -12.40323,-2.505704 -29.692585,-2.505704 H 64.208595 V 208.42406 h 23.30304 q 17.915775,0 31.196005,-2.63099 13.40551,-2.63099 24.55589,-9.77224 13.90666,-8.89525 20.79734,-23.42833 7.01597,-14.53308 7.01597,-36.3327 z"/></g></g></svg>